<?xml version="1.0" encoding="UTF-8" standalone="no"?>
<!-- Created with Inkscape (http://www.inkscape.org/) -->

<svg
   width="210mm"
   height="297mm"
   viewBox="0 0 210 297"
   version="1.1"
   id="svg3047"
   sodipodi:docname="desNowonwhite.svg"
   inkscape:version="1.2.1 (9c6d41e410, 2022-07-14)"
   xmlns:inkscape="http://www.inkscape.org/namespaces/inkscape"
   xmlns:sodipodi="http://sodipodi.sourceforge.net/DTD/sodipodi-0.dtd"
   xmlns="http://www.w3.org/2000/svg"
   xmlns:svg="http://www.w3.org/2000/svg">
  <sodipodi:namedview
     id="namedview459"
     pagecolor="#ffffff"
     bordercolor="#ffffff"
     borderopacity="0.25"
     inkscape:showpageshadow="2"
     inkscape:pageopacity="0.0"
     inkscape:pagecheckerboard="0"
     inkscape:deskcolor="#d1d1d1"
     inkscape:document-units="mm"
     showgrid="false"
     inkscape:zoom="0.48284231"
     inkscape:cx="397.64535"
     inkscape:cy="561.25984"
     inkscape:window-width="1366"
     inkscape:window-height="745"
     inkscape:window-x="-8"
     inkscape:window-y="-8"
     inkscape:window-maximized="1"
     inkscape:current-layer="svg3047" />
  <defs
     id="defs3044" />
  <g
     id="layer1"
     transform="matrix(0.06403516,0,0,0.06403516,50.450256,20.918419)">
    <path
       id="path5652-0"
       style="color:#ffffff;font-style:normal;font-variant:normal;font-weight:normal;font-stretch:normal;font-size:medium;line-height:normal;font-family:sans-serif;font-variant-ligatures:normal;font-variant-position:normal;font-variant-caps:normal;font-variant-numeric:normal;font-variant-alternates:normal;font-variant-east-asian:normal;font-feature-settings:normal;font-variation-settings:normal;text-indent:0;text-align:start;text-decoration:none;text-decoration-line:none;text-decoration-style:solid;text-decoration-color:#ffffff;letter-spacing:normal;word-spacing:normal;text-transform:none;writing-mode:lr-tb;direction:ltr;text-orientation:mixed;dominant-baseline:auto;baseline-shift:baseline;text-anchor:start;white-space:normal;shape-padding:0;shape-margin:0;inline-size:0;clip-rule:nonzero;display:inline;overflow:visible;visibility:visible;isolation:auto;mix-blend-mode:normal;color-interpolation:sRGB;color-interpolation-filters:linearRGB;solid-color:#ffffff;solid-opacity:1;fill:#ffffff;fill-opacity:1;fill-rule:nonzero;stroke:none;stroke-width:1.08453;stroke-linecap:butt;stroke-linejoin:miter;stroke-miterlimit:4;stroke-dasharray:none;stroke-dashoffset:0;stroke-opacity:1;color-rendering:auto;image-rendering:auto;shape-rendering:auto;text-rendering:auto;enable-background:accumulate;stop-color:#ffffff"
       d="m 7.7901,-288.19 c -183.9311,0.14 -332.9921,138.26 -332.9921,308.65 0,104.75 56.3534,197.3 142.5154,253.07 a 197.78589,149.16962 43.068247 0 1 -28.8837,-25.34 197.78589,149.16962 43.068247 0 1 -57.2803,-91.84 153.27517,192.48811 16.035482 0 1 -9.2759,-117.47 153.27517,192.48811 16.035482 0 1 171.5558,-169.48 153.27517,192.48811 16.035482 0 1 16.4927,1.12 153.27517,192.48811 16.035482 0 1 97.3732,69.47 192.48811,153.27517 73.964518 0 1 0.4949,-0.85 153.27517,192.48811 16.035482 0 1 0.495,0.85 192.48811,153.27517 73.964518 0 1 97.3733,-69.47 192.48811,153.27517 73.964518 0 1 16.4927,-1.12 192.48811,153.27517 73.964518 0 1 171.5558,169.48 192.48811,153.27517 73.964518 0 1 -9.2759,117.47 149.16962,197.78589 46.931754 0 1 -57.2803,91.84 149.16962,197.78589 46.931754 0 1 -28.8838,25.34 c 86.1618,-55.77 142.5154,-148.32 142.5154,-253.07 0,-170.39 -149.0611,-308.51 -332.9922,-308.65 z" />
    <text
       xml:space="preserve"
       style="font-style:normal;font-weight:normal;font-size:135.558px;line-height:84.7241px;font-family:sans-serif;letter-spacing:0px;word-spacing:0px;fill:#ffffff;fill-opacity:1;stroke:none;stroke-width:3.38888"
       x="-431.82574"
       y="941.18451"
       id="text4341-2-9-5"
       transform="scale(1.1542942,0.86633025)"><tspan
         id="tspan4339-2-3-6"
         x="-431.82574"
         y="941.18451"
         style="fill:#ffffff;stroke-width:3.38888">S E C U R I T Y</tspan></text>
    <text
       xml:space="preserve"
       style="font-style:normal;font-weight:normal;font-size:263.376px;line-height:164.61px;font-family:sans-serif;letter-spacing:0px;word-spacing:0px;fill:#ffffff;fill-opacity:1;stroke:none;stroke-width:6.58426"
       x="-693.81897"
       y="662.57617"
       id="text5439"
       transform="scale(1.1290646,0.88568891)"><tspan
         id="tspan5437"
         x="-693.81897"
         y="662.57617"
         style="fill:#ffffff;stroke-width:6.58426">N o w - O n </tspan></text>
  </g>
</svg>
